<svg width="180" height="52" viewBox="0 0 180 52" fill="none" xmlns="http://www.w3.org/2000/svg">
<path d="M179 46.0031C179 48.7742 176.709 51.0189 173.874 51.0189H6.13243C3.2995 51.0189 1 48.7742 1 46.0031V6.00351C1 3.23368 3.2995 0.98114 6.13243 0.98114H173.873C176.709 0.98114 178.999 3.23368 178.999 6.00351L179 46.0031Z" fill="#DC2626"/>
<path d="M173.333 1.04162C176.42 1.04162 178.932 3.4905 178.932 6.5V45.5C178.932 48.5095 176.42 50.9584 173.333 50.9584H6.66667C3.58 50.9584 1.06833 48.5095 1.06833 45.5V6.5C1.06833 3.4905 3.58 1.04162 6.66667 1.04162H173.333ZM173.333 2.74817e-06H6.66667C3.00167 2.74817e-06 0 2.92663 0 6.5V45.5C0 49.0734 3.00167 52 6.66667 52H173.333C176.998 52 180 49.0734 180 45.5V6.5C180 2.92663 176.998 2.74817e-06 173.333 2.74817e-06Z" fill="#A6A6A6"/>
<path d="M75.4 13.0117C75.4 14.5418 74.9293 15.6936 73.9893 16.4671C73.1186 17.1808 71.8813 17.5383 70.2786 17.5383C69.484 17.5383 68.804 17.5045 68.2346 17.4369V9.07664C68.9773 8.95964 69.7773 8.89984 70.6413 8.89984C72.168 8.89984 73.3186 9.22354 74.0946 9.87094C74.964 10.6028 75.4 11.6493 75.4 13.0117ZM73.9266 13.0494C73.9266 12.0575 73.6573 11.297 73.1186 10.7666C72.58 10.2375 71.7933 9.97234 70.7573 9.97234C70.3173 9.97234 69.9426 10.0009 69.632 10.0607V16.4164C69.804 16.4424 70.1186 16.4541 70.576 16.4541C71.6453 16.4541 72.4706 16.1642 73.052 15.5844C73.6333 15.0046 73.9266 14.1596 73.9266 13.0494Z" fill="white"/>
<path d="M83.2119 14.3482C83.2119 15.2907 82.9359 16.0629 82.3839 16.6687C81.8052 17.2914 81.0386 17.6021 80.0812 17.6021C79.1586 17.6021 78.4239 17.3044 77.8759 16.7064C77.3292 16.1097 77.0559 15.357 77.0559 14.4496C77.0559 13.5006 77.3372 12.7219 77.9026 12.1174C78.4679 11.5129 79.2279 11.21 80.1852 11.21C81.1079 11.21 81.8492 11.5077 82.4106 12.1044C82.9439 12.6842 83.2119 13.433 83.2119 14.3482ZM81.7626 14.3924C81.7626 13.8269 81.6372 13.342 81.3879 12.9377C81.0946 12.4489 80.6772 12.2045 80.1346 12.2045C79.5732 12.2045 79.1466 12.4489 78.8532 12.9377C78.6026 13.342 78.4786 13.8347 78.4786 14.4171C78.4786 14.9826 78.6039 15.4675 78.8532 15.8718C79.1559 16.3606 79.5772 16.605 80.1212 16.605C80.6546 16.605 81.0732 16.3567 81.3746 15.8588C81.6332 15.4467 81.7626 14.9579 81.7626 14.3924Z" fill="white"/>
<path d="M93.6866 11.3347L91.72 17.4629H90.44L89.6253 14.8018C89.4186 14.1375 89.2506 13.4771 89.12 12.8219H89.0946C88.9733 13.4953 88.8053 14.1544 88.5893 14.8018L87.724 17.4629H86.4293L84.58 11.3347H86.016L86.7266 14.248C86.8986 14.937 87.04 15.5935 87.1533 16.2149H87.1786C87.2826 15.7027 87.4546 15.0501 87.6973 14.261L88.5893 11.336H89.728L90.5826 14.1986C90.7893 14.8967 90.9573 15.5688 91.0866 16.2162H91.1253C91.22 15.5857 91.3626 14.9136 91.552 14.1986L92.3146 11.336H93.6866V11.3347Z" fill="white"/>
<path d="M100.931 17.463H99.5333V13.953C99.5333 12.8714 99.1119 12.3306 98.2666 12.3306C97.8519 12.3306 97.5173 12.4788 97.2573 12.7765C96.9999 13.0742 96.8693 13.4252 96.8693 13.8269V17.4617H95.4719V13.0859C95.4719 12.5477 95.4546 11.964 95.4213 11.3322H96.6493L96.7146 12.2903H96.7533C96.9159 11.9926 97.1586 11.7469 97.4773 11.5506C97.8559 11.3218 98.2799 11.2061 98.7439 11.2061C99.3306 11.2061 99.8186 11.3907 100.207 11.7612C100.689 12.2149 100.931 12.8922 100.931 13.7918V17.463Z" fill="white"/>
<path d="M104.784 17.4629H103.388V8.52283H104.784V17.4629Z" fill="white"/>
<path d="M113.011 14.3482C113.011 15.2907 112.735 16.0629 112.183 16.6687C111.604 17.2914 110.836 17.6021 109.88 17.6021C108.956 17.6021 108.221 17.3044 107.675 16.7064C107.128 16.1097 106.855 15.357 106.855 14.4496C106.855 13.5006 107.136 12.7219 107.701 12.1174C108.267 11.5129 109.027 11.21 109.983 11.21C110.907 11.21 111.647 11.5077 112.209 12.1044C112.743 12.6842 113.011 13.433 113.011 14.3482ZM111.56 14.3924C111.56 13.8269 111.435 13.342 111.185 12.9377C110.893 12.4489 110.475 12.2045 109.933 12.2045C109.371 12.2045 108.944 12.4489 108.652 12.9377C108.401 13.342 108.277 13.8347 108.277 14.4171C108.277 14.9826 108.403 15.4675 108.652 15.8718C108.955 16.3606 109.376 16.605 109.92 16.605C110.453 16.605 110.871 16.3567 111.172 15.8588C111.432 15.4467 111.56 14.9579 111.56 14.3924Z" fill="white"/>
<path d="M119.773 17.463H118.519L118.415 16.7571H118.376C117.947 17.32 117.335 17.6021 116.54 17.6021C115.947 17.6021 115.467 17.4162 115.105 17.047C114.777 16.7116 114.613 16.2943 114.613 15.799C114.613 15.0502 114.933 14.4795 115.577 14.0843C116.22 13.6891 117.124 13.4954 118.288 13.5045V13.3901C118.288 12.5828 117.853 12.1798 116.983 12.1798C116.363 12.1798 115.816 12.3319 115.344 12.6335L115.06 11.7391C115.644 11.3868 116.365 11.21 117.216 11.21C118.859 11.21 119.683 12.055 119.683 13.745V16.0018C119.683 16.6141 119.713 17.1016 119.773 17.463ZM118.323 15.357V14.4119C116.781 14.3859 116.011 14.798 116.011 15.6469C116.011 15.9667 116.099 16.2059 116.279 16.3658C116.459 16.5257 116.688 16.605 116.961 16.605C117.268 16.605 117.555 16.5101 117.816 16.3216C118.079 16.1318 118.24 15.8913 118.3 15.5962C118.315 15.5299 118.323 15.4493 118.323 15.357Z" fill="white"/>
<path d="M127.713 17.4629H126.473L126.408 16.4788H126.369C125.973 17.2276 125.299 17.602 124.351 17.602C123.593 17.602 122.963 17.3121 122.463 16.7323C121.963 16.1525 121.713 15.3998 121.713 14.4755C121.713 13.4836 121.984 12.6802 122.528 12.0666C123.055 11.4946 123.7 11.2086 124.468 11.2086C125.312 11.2086 125.903 11.4855 126.239 12.0406H126.265V8.52283H127.664V15.8119C127.664 16.4086 127.68 16.9585 127.713 17.4629ZM126.265 14.8785V13.8567C126.265 13.6799 126.252 13.5369 126.227 13.4277C126.148 13.1001 125.979 12.8245 125.721 12.6022C125.461 12.3799 125.148 12.2681 124.787 12.2681C124.265 12.2681 123.857 12.4696 123.557 12.8739C123.26 13.2782 123.109 13.7943 123.109 14.4248C123.109 15.0306 123.252 15.522 123.539 15.9003C123.841 16.3033 124.249 16.5048 124.76 16.5048C125.219 16.5048 125.585 16.3371 125.864 16.0004C126.133 15.6897 126.265 15.3153 126.265 14.8785Z" fill="white"/>
<path d="M139.664 14.3482C139.664 15.2907 139.388 16.0629 138.836 16.6687C138.257 17.2914 137.492 17.6021 136.533 17.6021C135.612 17.6021 134.877 17.3044 134.328 16.7064C133.781 16.1097 133.508 15.357 133.508 14.4496C133.508 13.5006 133.789 12.7219 134.355 12.1174C134.92 11.5129 135.68 11.21 136.639 11.21C137.56 11.21 138.303 11.5077 138.863 12.1044C139.396 12.6842 139.664 13.433 139.664 14.3482ZM138.216 14.3924C138.216 13.8269 138.091 13.342 137.841 12.9377C137.547 12.4489 137.131 12.2045 136.587 12.2045C136.027 12.2045 135.6 12.4489 135.305 12.9377C135.055 13.342 134.931 13.8347 134.931 14.4171C134.931 14.9826 135.056 15.4675 135.305 15.8718C135.608 16.3606 136.029 16.605 136.573 16.605C137.107 16.605 137.527 16.3567 137.828 15.8588C138.085 15.4467 138.216 14.9579 138.216 14.3924Z" fill="white"/>
<path d="M147.177 17.463H145.781V13.953C145.781 12.8714 145.36 12.3306 144.513 12.3306C144.099 12.3306 143.764 12.4788 143.505 12.7765C143.247 13.0742 143.117 13.4252 143.117 13.8269V17.4617H141.719V13.0859C141.719 12.5477 141.703 11.964 141.669 11.3322H142.896L142.961 12.2903H143C143.164 11.9926 143.407 11.7469 143.724 11.5506C144.104 11.3218 144.527 11.2061 144.992 11.2061C145.577 11.2061 146.065 11.3907 146.453 11.7612C146.937 12.2149 147.177 12.8922 147.177 13.7918V17.463Z" fill="white"/>
<path d="M16 35C16.3025 31.7421 17.3288 28.7503 19.079 26.0244C20.8291 23.3 23.1608 21.1347 26.0738 19.5288L22.6336 13.7214C22.4413 13.426 22.3929 13.1335 22.4883 12.8438C22.5852 12.5542 22.7886 12.3197 23.0984 12.1405C23.392 11.9885 23.6805 11.9598 23.9639 12.0545C24.2458 12.1477 24.48 12.3312 24.6665 12.6051L28.1132 18.4447C30.7855 17.3492 33.5811 16.8015 36.5 16.8015C39.4189 16.8015 42.2145 17.3492 44.8868 18.4447L48.3335 12.6051C48.52 12.3327 48.7549 12.1491 49.0383 12.0545C49.3202 11.9598 49.6073 11.9885 49.8994 12.1405C50.2107 12.3197 50.4148 12.5542 50.5117 12.8438C50.6071 13.1335 50.5587 13.426 50.3663 13.7214L46.9284 19.5288C49.84 21.1347 52.1709 23.3 53.921 26.0244C55.6712 28.7503 56.6975 31.7414 57 34.9978L16 35ZM27.1882 29.9928C27.8416 29.9928 28.3922 29.7727 28.84 29.3324C29.2879 28.8908 29.5118 28.3509 29.5118 27.7128C29.5118 27.0747 29.2857 26.537 28.8334 26.0997C28.3812 25.6623 27.8291 25.4437 27.1772 25.4437C26.5253 25.4437 25.9747 25.6645 25.5254 26.1061C25.0761 26.5478 24.8515 27.0869 24.8515 27.7236C24.8515 28.3631 25.0776 28.9008 25.5298 29.3367C25.982 29.7727 26.5348 29.9913 27.1882 29.9928ZM45.825 29.9928C46.4784 29.9928 47.029 29.7727 47.4768 29.3324C47.9231 28.8908 48.1463 28.3509 48.1463 27.7128C48.1463 27.0747 47.9209 26.537 47.4702 26.0997C47.0194 25.6623 46.4666 25.4437 45.8118 25.4437C45.1569 25.4437 44.6063 25.6645 44.16 26.1061C43.7136 26.5478 43.4897 27.0869 43.4882 27.7236C43.4868 28.3603 43.7121 28.898 44.1644 29.3367C44.6166 29.7755 45.1716 29.9942 45.825 29.9928Z" fill="white"/>
<path d="M71.726 33.86L72.232 31.56H79.707L80.236 33.86H71.726ZM75.935 26.454L73.405 32.365L73.359 32.963L71.128 38H68.069L75.935 21.003L83.801 38H80.742L78.557 33.101L78.488 32.434L75.935 26.454ZM92.2749 31.56C92.2749 30.778 92.1139 30.1877 91.7919 29.789C91.4699 29.3903 90.9715 29.191 90.2969 29.191C89.8369 29.191 89.4305 29.2907 89.0779 29.49C88.7252 29.674 88.4492 29.95 88.2499 30.318C88.0505 30.6707 87.9509 31.0847 87.9509 31.56V38H85.4669V27.42H87.9509V29.053C88.2882 28.4243 88.7175 27.9567 89.2389 27.65C89.7755 27.3433 90.4119 27.19 91.1479 27.19C92.3439 27.19 93.2562 27.558 93.8849 28.294C94.5135 29.0147 94.8279 30.0113 94.8279 31.284V38H92.2749V31.56ZM105.958 20.06H108.465V38H105.958V20.06ZM97.1951 32.71C97.1951 31.5447 97.4328 30.5557 97.9081 29.743C98.3834 28.915 99.0121 28.2863 99.7941 27.857C100.591 27.4123 101.442 27.19 102.347 27.19C103.236 27.19 104.011 27.4123 104.67 27.857C105.345 28.3017 105.874 28.938 106.257 29.766C106.656 30.5787 106.855 31.56 106.855 32.71C106.855 33.8447 106.656 34.826 106.257 35.654C105.874 36.482 105.345 37.1183 104.67 37.563C104.011 38.0077 103.236 38.23 102.347 38.23C101.442 38.23 100.591 38.0153 99.7941 37.586C99.0121 37.1413 98.3834 36.505 97.9081 35.677C97.4328 34.849 97.1951 33.86 97.1951 32.71ZM99.7711 32.71C99.7711 33.4153 99.9168 34.021 100.208 34.527C100.499 35.033 100.883 35.4163 101.358 35.677C101.849 35.9377 102.378 36.068 102.945 36.068C103.42 36.068 103.888 35.9377 104.348 35.677C104.823 35.4163 105.207 35.0407 105.498 34.55C105.805 34.044 105.958 33.4307 105.958 32.71C105.958 31.9893 105.805 31.3837 105.498 30.893C105.207 30.387 104.823 30.0037 104.348 29.743C103.888 29.4823 103.42 29.352 102.945 29.352C102.378 29.352 101.849 29.4823 101.358 29.743C100.883 30.0037 100.499 30.387 100.208 30.893C99.9168 31.399 99.7711 32.0047 99.7711 32.71ZM114.005 27.42V38H111.544V27.42H114.005ZM117.156 30.065C116.926 29.881 116.711 29.743 116.512 29.651C116.313 29.559 116.06 29.513 115.753 29.513C115.339 29.513 115.002 29.6203 114.741 29.835C114.48 30.0497 114.289 30.3487 114.166 30.732C114.059 31.1 114.005 31.537 114.005 32.043L113.177 31.56C113.177 30.7167 113.33 29.973 113.637 29.329C113.959 28.6697 114.365 28.1483 114.856 27.765C115.362 27.3817 115.883 27.19 116.42 27.19C116.803 27.19 117.164 27.2513 117.501 27.374C117.838 27.4813 118.122 27.6807 118.352 27.972L117.156 30.065ZM118.915 32.71C118.915 31.6213 119.16 30.663 119.651 29.835C120.157 29.007 120.839 28.363 121.698 27.903C122.556 27.4277 123.53 27.19 124.619 27.19C125.707 27.19 126.673 27.4277 127.517 27.903C128.375 28.363 129.058 29.007 129.564 29.835C130.07 30.663 130.323 31.6213 130.323 32.71C130.323 33.7833 130.07 34.7417 129.564 35.585C129.058 36.413 128.375 37.0647 127.517 37.54C126.673 38 125.707 38.23 124.619 38.23C123.53 38.23 122.556 38 121.698 37.54C120.839 37.0647 120.157 36.413 119.651 35.585C119.16 34.7417 118.915 33.7833 118.915 32.71ZM121.468 32.71C121.468 33.3693 121.606 33.952 121.882 34.458C122.158 34.9487 122.533 35.3397 123.009 35.631C123.484 35.907 124.021 36.045 124.619 36.045C125.201 36.045 125.73 35.907 126.206 35.631C126.696 35.3397 127.08 34.9487 127.356 34.458C127.632 33.952 127.77 33.3693 127.77 32.71C127.77 32.0507 127.632 31.468 127.356 30.962C127.08 30.456 126.696 30.065 126.206 29.789C125.73 29.513 125.201 29.375 124.619 29.375C124.021 29.375 123.484 29.513 123.009 29.789C122.533 30.065 122.158 30.456 121.882 30.962C121.606 31.468 121.468 32.0507 121.468 32.71ZM132.588 23.211C132.588 22.7817 132.741 22.4213 133.048 22.13C133.37 21.8387 133.738 21.693 134.152 21.693C134.596 21.693 134.964 21.8387 135.256 22.13C135.562 22.4213 135.716 22.7817 135.716 23.211C135.716 23.625 135.562 23.9853 135.256 24.292C134.964 24.5833 134.596 24.729 134.152 24.729C133.738 24.729 133.37 24.5833 133.048 24.292C132.741 23.9853 132.588 23.625 132.588 23.211ZM132.933 27.42H135.371V38H132.933V27.42ZM146.747 20.06H149.254V38H146.747V20.06ZM137.984 32.71C137.984 31.5447 138.222 30.5557 138.697 29.743C139.172 28.915 139.801 28.2863 140.583 27.857C141.38 27.4123 142.231 27.19 143.136 27.19C144.025 27.19 144.8 27.4123 145.459 27.857C146.134 28.3017 146.663 28.938 147.046 29.766C147.445 30.5787 147.644 31.56 147.644 32.71C147.644 33.8447 147.445 34.826 147.046 35.654C146.663 36.482 146.134 37.1183 145.459 37.563C144.8 38.0077 144.025 38.23 143.136 38.23C142.231 38.23 141.38 38.0153 140.583 37.586C139.801 37.1413 139.172 36.505 138.697 35.677C138.222 34.849 137.984 33.86 137.984 32.71ZM140.56 32.71C140.56 33.4153 140.706 34.021 140.997 34.527C141.288 35.033 141.672 35.4163 142.147 35.677C142.638 35.9377 143.167 36.068 143.734 36.068C144.209 36.068 144.677 35.9377 145.137 35.677C145.612 35.4163 145.996 35.0407 146.287 34.55C146.594 34.044 146.747 33.4307 146.747 32.71C146.747 31.9893 146.594 31.3837 146.287 30.893C145.996 30.387 145.612 30.0037 145.137 29.743C144.677 29.4823 144.209 29.352 143.734 29.352C143.167 29.352 142.638 29.4823 142.147 29.743C141.672 30.0037 141.288 30.387 140.997 30.893C140.706 31.399 140.56 32.0047 140.56 32.71Z" fill="white"/>
</svg>
